<?xml version="1.0" encoding="utf-8"?>
<!-- Generator: Adobe Illustrator 24.1.2, SVG Export Plug-In . SVG Version: 6.00 Build 0)  -->
<svg version="1.1" id="Слой_1" xmlns="http://www.w3.org/2000/svg" xmlns:xlink="http://www.w3.org/1999/xlink" x="0px" y="0px"
	 viewBox="0 0 4717.6 1456.6" style="enable-background:new 0 0 4717.6 1456.6;" xml:space="preserve">
<style type="text/css">
	.st0{fill:#FFFFFF;}
	.st1{fill:#0D2C99;}
	.st2{fill-rule:evenodd;clip-rule:evenodd;fill:#FFFFFF;}
	.st3{fill:#00AECA;}
	.st4{fill:#FCC409;}
	.st5{fill:#FCC409;stroke:#00AECA;stroke-width:0.19;stroke-miterlimit:2;}
	.st6{opacity:0.25;}
	.st7{fill:#1D4293;}
	.st8{fill:#D42D1E;}
	.st9{fill:#007D36;}
	.st10{fill:#CE1621;}
</style>
<g id="Слой_1-2">
	<g id="IVAO">
		<path class="st0" d="M1921.6,929V223h184.1v706H1921.6z"/>
		<path class="st0" d="M2748.7,223h186.1l-321.2,706h-146.1l-321.2-706h191.1l205.2,476.7L2748.7,223z"/>
		<path class="st0" d="M3442.1,929l-63-146.2h-312.3l-63,146.2h-185.1L3148,223h146.1l330.2,706L3442.1,929z M3125.9,644.6H3320
			L3223,418.3L3125.9,644.6z"/>
		<path class="st0" d="M3982.7,938c-72,0-134.8-14.7-188.1-44.1c-52.7-30-93.4-72.1-122.1-126.2c-28.7-54.7-43-118.8-43-192.3
			s14.3-137.2,43-191.3c28.7-54.7,69.4-96.8,122.1-126.2c53.4-29.4,116.1-44.1,188.1-44.1c72.1,0,134.4,14.7,187.1,44.1
			c53.4,29.4,94.1,71.4,122.1,126.2c28.7,54.1,43,117.8,43,191.3s-14.3,137.5-43,192.3c-28.7,54.1-69.7,96.1-123.1,126.2
			C4116.1,923.3,4054.1,938,3982.7,938z M3982.7,796.8c53.4,0,95.1-18.7,125.1-56.1c30-38.1,45-93.1,45-165.2s-15.3-126.8-46-164.2
			c-30-37.4-71.4-56.1-124.1-56.1c-53.4,0-95.1,18.7-125.1,56.1c-30,36.7-45,91.5-45,164.2s15,127.8,45,165.2
			C3887.6,778.1,3929.3,796.8,3982.7,796.8z"/>
	</g>
	<g>
		<g id="Divisional">
			<circle class="st0" cx="1161" cy="1170" r="285"/>
			<path class="st1" d="M1104.1,1170.6l61.5,82.1h-34.4l-43.8-60.5l-44,60.5H1009l61.7-82.3l-59.4-79.4h34.4l41.8,58l42-58h34.3
				L1104.1,1170.6z"/>
			<path class="st1" d="M1316.5,1252.7h-32.1l-27.8-51.6c-2.6-4.9-5.8-8.3-9.6-10.3c-3.8-2-8.6-3-14.5-3h-22.5v64.9h-29.1V1091h71.6
				c18.3,0,32.3,4.1,41.9,12.3c9.6,8.2,14.4,20,14.4,35.4c0,12.4-3.5,22.6-10.4,30.6c-7,8-16.8,13.3-29.5,15.7
				c8.6,2.3,15.4,8.3,20.6,18.1L1316.5,1252.7z M1272.9,1158.7c5.2-4.2,7.8-10.7,7.8-19.4c0-8.9-2.6-15.3-7.8-19.4
				s-13.4-6.1-24.5-6.1h-38.5v51.2h38.5C1259.5,1165.1,1267.7,1162.9,1272.9,1158.7z"/>
		</g>
	</g>
	<path id="Plane" class="st2" d="M767.5,773.5c-0.3,0-35.4-4.5-39.5-4.7l-1.5-0.1c-3.2-0.1-8.7-0.3-12.6-0.6c-2.8-0.2-5.9-2.5-6-5.3
		c-0.1-1.4-0.1-3-0.1-4.7c0-1.4,0-2.9-0.1-4.3c0-6.1,0.7-16,1-18.3c0-0.2,0.1-0.3,0.2-0.5c0.3-0.3,0.7-0.5,1.1-0.5h7.8
		c1.2,0,1.3,3,1.1,4.8c0,0.1,0,0.2,0,0.4c0,1.6-0.4,14-0.4,15.7s3.4,3.2,7.7,3s41.3-2.3,42-2.3l0,0l85.5-3.8
		c8.1-0.4,9.3-12.2,9.2-21.4c-0.2-5-0.9-9.9-2.2-14.7c-0.6-2-2.4-3.4-4.5-3.4l-9.3-0.2c-1.4,0-2.5-1.2-2.4-2.6s1.2-2.5,2.6-2.4
		l23.1,1c2.3,0.1,4.2,1.8,5.3,3.9c0.8,1.5,2.1,2.8,3.9,2.8c1,0,1.9-0.3,2.5-1.1l0.3-0.4c1.7-2,3.6-4.3,6.2-4.2
		c2.7,0.1,4.8,2.3,4.7,5c-0.1,4.4-0.2,10.7-0.3,13.9c0,5.4,2.3,10.4,5.8,10.6c1.2,0.1,2.3-0.5,3.1-1.4c1.7-2,3.8-4.1,6.4-4l7.8,0.3
		c2.7,0.1,4.7,2.4,5.6,4.9c0.7,1.8,1.9,3.4,4,3.4c2.2,0.2,3.5-1.4,4.4-3.2c1.1-2.4,3.3-4.5,6-4.4l50.6,1.8c1.7,0.1,3,1.3,4.3,2.5
		c0.6,0.6,1.4,1.2,2.1,1.8c0.4,0.3,0.9,0.4,1.4,0.4c1,0,1.9-0.4,2.5-1.1c1.6-1.5,3.4-3,5.6-3l20.2,0.5c1.5,0,2.9-0.6,3.9-1.7
		l0.4-0.5c2-2.2,5.4-2.3,7.6-0.3c3.3,2.8,8,6.3,11.5,6.1c5.9,0,15.6-8.1,19.4-16.6c1.4-3,2.4-6.2,3.1-9.4c0.5-2.8,2.8-4.8,5.6-5
		c23-0.1,119-0.3,128.3-0.3c10.6-0.2,11.7-27.5,11-25.7c-0.4,1-1.8,4.6-2.8,7.4c-0.8,2.1-2.9,3.4-5.1,3.2l-144.2-11.7
		c-1.6-0.2-3-1-4.1-2.2c-3.4-3.8-8.2-6.1-13.3-6.5c-4.9-0.4-9.7,1.2-13.3,4.5c-1.4,1.3-3.3,1.9-5.1,1.7l-122.5-19.9
		c-1.5-0.3-2.9-1.2-3.8-2.5c-4.9-7-12.9-11.3-21.5-11.6c-7-0.3-10.9,1.5-13.1,3.3c-2,1.7-4.7,3.3-7.3,2.9
		c-127.1-22.6-139.8-36-141-38c-0.1-0.2-0.2-0.3-0.2-0.5c-0.2-2.3-1.8-18.4-1.8-41.8c0-94.1-39.7-147.9-55.7-147.9h-0.2H658
		c-16,0-55.7,53.8-55.7,147.9c0,23.4-1.5,39.5-1.8,41.8c0,0.2-0.1,0.4-0.1,0.5c-1.2,2-14,15.4-141,38c-2.6,0.5-5.3-1.2-7.3-2.9
		c-2.2-1.8-6.2-3.6-13.1-3.3c-8.6,0.3-16.5,4.5-21.5,11.6c-0.9,1.3-2.3,2.2-3.8,2.5l-122.5,19.8c-1.9,0.2-3.8-0.4-5.1-1.7
		c-3.7-3.2-8.5-4.8-13.3-4.5c-5.1,0.4-9.9,2.7-13.3,6.5c-1,1.2-2.5,2-4.1,2.2l-144.2,11.7c-2.2,0.2-4.3-1.1-5.1-3.2
		c-1-2.8-2.4-6.4-2.8-7.4c-0.7-1.8,0.4,25.5,11,25.7c9.3,0,105.2,0.3,128.3,0.3c2.8,0.1,5.1,2.2,5.6,5c0.7,3.3,1.8,6.4,3.1,9.5
		c3.8,8.5,13.5,16.5,19.4,16.5c3.5,0.1,8.2-3.3,11.5-6.1c2.2-2,5.6-1.8,7.6,0.4l0.4,0.4c1,1.1,2.4,1.7,3.9,1.7l20.2-0.6
		c2.2-0.1,4,1.5,5.6,3c0.7,0.7,1.6,1.1,2.5,1.1c0.5,0,1-0.1,1.4-0.4c0.8-0.5,1.5-1.1,2.1-1.8c1.3-1.2,2.6-2.4,4.3-2.5l50.6-1.8
		c2.7-0.1,4.8,2,6,4.4c0.8,1.8,2.2,3.3,4.4,3.2c2.2,0,3.4-1.6,4-3.4c0.9-2.5,2.9-4.8,5.6-4.9l7.9-0.3c2.6-0.1,4.6,2,6.3,4
		c0.8,0.9,1.9,1.4,3.1,1.4c3.4-0.2,5.8-5.2,5.8-10.6c-0.1-3.2-0.2-9.5-0.3-13.9c-0.1-2.7,2-4.9,4.7-5c2.6-0.1,4.5,2.2,6.2,4.2
		l0.3,0.4c0.6,0.7,1.5,1.2,2.5,1.1c1.8,0,3-1.3,3.8-2.8c1.1-2,3-3.8,5.3-3.9l23.1-1c1.4,0,2.5,1,2.6,2.4c0,1.4-1,2.5-2.4,2.6
		l-9.4,0.2c-2.1,0-3.9,1.4-4.5,3.4c-1.3,4.8-2.1,9.7-2.2,14.7c-0.2,9.2,1.1,21,9.1,21.4l85.5,3.8l0,0c0.7,0,37.7,2.2,42,2.3
		c4.3,0.2,7.7-1.3,7.7-3s-0.3-14-0.4-15.6c0-0.1,0-0.2,0-0.3c0,0,0-0.1,0-0.1c-0.2-1.8-0.1-4.9,1.1-4.9h7.8c0.4,0,0.8,0.1,1.1,0.5
		c0.1,0.1,0.1,0.3,0.2,0.5c0.4,2.3,1,12.2,1,18.3c0,1.4,0,2.9-0.1,4.3c0,1.7,0,3.3-0.1,4.7c-0.1,2.8-3.3,5.1-6,5.3
		c-3.8,0.2-9,0.5-12.2,0.6l-1.9,0.1c-4.1,0.2-39.2,4.6-39.5,4.7l0,0c-0.3,0-75.2,9.2-77.2,9.5s-1.8,3.8,0,3.8c0.3,0,2,0.1,4.7,0.3
		c13.8,0.8,55,3.4,81.5,2.6c27.3-0.9,60.8-2.1,70.1-2.4c1.6-0.1,3.1,0.6,4.1,1.8c3.9,4.4,13.9,15.3,22.1,18.4
		c-0.7,0.5-1,0.8,0.1,0.8h8c1,0,0.8-0.3,0.1-0.8c8.2-3,18.3-13.9,22.1-18.4c1-1.2,2.5-1.9,4.1-1.8c9.3,0.3,42.8,1.5,70.1,2.4
		c26.6,0.8,67.7-1.8,81.5-2.6c2.7-0.2,4.4-0.3,4.7-0.3c1.8,0,2-3.4,0-3.8S767.8,773.5,767.5,773.5L767.5,773.5z"/>
	<path id="Logo_Outline" class="st0" d="M660,0C295.5,0,0,295.5,0,660s295.5,660,660,660c52.2,0.1,104.2-6.1,155-18.3
		c-6.2-16.3-11.2-32.9-15-49.9c-45.9,10.8-92.9,16.2-140,16.2c-335.8,0-608-272.2-608-608S324.2,52,660,52s608,272.2,608,608
		c0,50.4-6.2,100.6-18.5,149.4c16.9,4.1,33.5,9.4,49.6,15.8c13.9-54,21-109.5,20.9-165.2C1320,295.5,1024.5,0,660,0z"/>
	<g id="Name">
		<path class="st0" d="M1922.5,1231.9v-131.1h85.2v15.5h-66.4v41.3h62.7v15.6h-62.7v43.3h66.4v15.4L1922.5,1231.9z"/>
		<path class="st0" d="M2171.6,1231.9l-14-32.4h-66.4l-14,32.4h-19.3l58.4-131.1h16l58.4,131.1H2171.6z M2097.7,1184.3h53.4
			l-26.6-62.1L2097.7,1184.3z"/>
		<path class="st0" d="M2263.9,1229.3c-8-2.5-15.5-6.6-21.9-12.1l6.9-14.1c5.9,4.9,12.7,8.7,20,11.3c7.5,2.4,15.3,3.5,23.2,3.4
			c9.8,0,17.4-1.8,22.7-5.5s8-8.8,8-15.5c0.2-5.3-2.7-10.3-7.4-12.7c-5-2.8-12.9-5.4-23.8-7.9c-8.8-1.7-17.4-4.3-25.7-7.6
			c-6.2-2.4-11.6-6.4-15.7-11.6c-3.8-4.9-5.7-11.1-5.7-18.7c-0.2-7.2,1.9-14.3,6-20.3c4-5.8,9.7-10.4,17.2-13.7s16.1-4.9,25.8-4.9
			c8.8-0.1,17.6,1.4,26,4.2c7.5,2.4,14.3,6.5,20,12l-6.7,14.1c-5.6-4.7-11.9-8.4-18.7-11.1c-6.5-2.4-13.4-3.7-20.4-3.6
			c-9.4,0-16.8,2-22.2,5.9c-5.4,3.9-8.1,9.3-8.1,16.3c0,6,2.4,10.4,7.1,13.5c4.7,3,12.3,5.8,22.7,8.3c9,1.9,17.9,4.5,26.5,7.7
			c6.2,2.3,11.8,6.1,16.2,11c4,4.7,6,10.7,6,18.1c0.2,7.1-1.9,14.1-6,19.9c-4,5.7-9.8,10.1-17.3,13.2s-16.4,4.6-26.7,4.7
			C2282.4,1233.5,2273,1232.2,2263.9,1229.3z"/>
		<path class="st0" d="M2436.4,1231.9v-115.1h-44.3v-16h108.1v16h-44.5v115.1H2436.4z"/>
		<path class="st0" d="M2560.1,1231.9v-131.1h85.2v15.5h-66.4v41.3h62.7v15.6h-62.7v43.3h66.4v15.4L2560.1,1231.9z"/>
		<path class="st0" d="M2817.7,1231.9h-21.2l-22.3-42c-2.5-4.5-5.4-7.6-8.8-9.4c-3.4-1.8-7.9-2.7-13.5-2.7h-21.5v54.1h-19v-131.2
			h55.8c14.5,0,25.6,3.2,33.2,9.7s11.4,15.9,11.4,28.3c0,10-2.8,18.3-8.5,24.7s-13.7,10.5-24.1,12.3c6.4,2,11.8,6.8,16,14.5
			L2817.7,1231.9z M2764.9,1162.4c9.7,0,16.8-1.9,21.5-5.7s7-9.6,7-17.6c0-7.9-2.3-13.7-6.9-17.4c-4.6-3.7-11.8-5.5-21.6-5.5h-34.8
			v46.1L2764.9,1162.4z"/>
		<path class="st0" d="M2971.7,1100.8h18v131.1H2975l-75-98.9v98.9h-18v-131.1h14.5l75.2,99.1V1100.8z"/>
		<path class="st0" d="M3154.2,1231.9v-131.1h85.2v15.5H3173v41.3h62.7v15.6H3173v43.3h66.4v15.4L3154.2,1231.9z"/>
		<path class="st0" d="M3318.1,1219.8c-9.1-9.1-13.6-22.4-13.6-40v-79h19v80.3c0,12,2.9,21.1,8.7,27.3s14.4,9.3,25.8,9.3
			c11.3,0,19.8-3.1,25.7-9.3s8.7-15.3,8.8-27.3v-80.3h19v79c0,17.5-4.6,30.8-13.7,39.9s-22.4,13.7-39.7,13.7
			C3340.4,1233.4,3327.1,1228.9,3318.1,1219.8z"/>
		<path class="st0" d="M3589.6,1231.9h-21.2l-22.3-42c-2.5-4.5-5.4-7.6-8.8-9.4c-3.4-1.8-7.9-2.7-13.5-2.7h-21.6v54.1h-19v-131.2
			h55.8c14.5,0,25.6,3.2,33.2,9.7s11.4,15.9,11.4,28.3c0,10-2.8,18.3-8.5,24.7c-5.6,6.4-13.7,10.5-24.1,12.3c6.5,2,11.8,6.8,16,14.5
			L3589.6,1231.9z M3536.8,1162.4c9.7,0,16.8-1.9,21.5-5.7s7-9.6,7-17.6c0-7.9-2.3-13.7-6.9-17.4c-4.6-3.7-11.8-5.5-21.6-5.5h-34.8
			v46.1H3536.8z"/>
		<path class="st0" d="M3677.1,1225.3c-9.2-5.5-16.5-13.6-21.1-23.3c-5-10-7.4-21.9-7.4-35.5c0-13.8,2.5-25.7,7.3-35.8
			c4.5-9.7,11.9-17.8,21.1-23.3c9.2-5.4,20-8.1,32.4-8.1c12.5,0,23.4,2.7,32.5,8.1c9.2,5.4,16.6,13.6,21.1,23.3
			c4.9,10.1,7.3,22,7.3,35.6s-2.4,25.5-7.3,35.6c-4.5,9.7-11.9,17.8-21.1,23.3c-9.2,5.5-20,8.2-32.5,8.2
			C3697,1233.4,3686.3,1230.7,3677.1,1225.3z M3740.1,1204.4c7.3-8.9,11-21.6,11-38.1c0-16.5-3.6-29.2-10.9-38
			c-7.3-8.9-17.5-13.3-30.8-13.3c-13,0-23.2,4.4-30.4,13.3c-7.3,8.9-10.9,21.5-10.9,38c0,16.5,3.6,29.2,10.9,38.1
			c7.3,8.9,17.4,13.4,30.4,13.4C3722.6,1217.8,3732.8,1213.3,3740.1,1204.4L3740.1,1204.4z"/>
		<path class="st0" d="M3838.9,1100.8h54.3c13.9,0,24.7,3.4,32.4,10.2c7.7,6.8,11.5,16.5,11.5,29c0,12.4-3.8,22.1-11.5,29
			s-18.5,10.4-32.4,10.4H3858v52.4h-19.2L3838.9,1100.8z M3891.1,1164c18.3,0,27.5-8,27.5-24c0-15.9-9.2-23.8-27.5-23.8H3858v47.8
			L3891.1,1164z"/>
		<path class="st0" d="M4002.6,1231.9v-131.1h85.2v15.5h-66.4v41.3h62.7v15.6h-62.7v43.3h66.4v15.4L4002.6,1231.9z"/>
		<path class="st0" d="M4345.5,1231.9l-14-32.4h-66.4l-14,32.4h-19.3l58.4-131.1h16l58.4,131.1H4345.5z M4271.7,1184.3h53.4
			l-26.6-62.1L4271.7,1184.3z"/>
		<path class="st0" d="M4513.9,1100.8h18v131.1h-14.7l-75-98.9v98.9h-18v-131.1h14.6l75.1,99.1V1100.8z"/>
		<path class="st0" d="M4604.8,1100.8h46c21.2,0,37.6,5.7,49.3,17.1c11.7,11.4,17.5,27.5,17.5,48.4c0,20.8-5.8,37-17.5,48.4
			c-11.7,11.5-28.1,17.2-49.4,17.2h-46L4604.8,1100.8z M4649.6,1215.9c32.2,0,48.4-16.6,48.4-49.7c0-33-16.1-49.5-48.4-49.5H4624
			v99.1L4649.6,1215.9z"/>
		<path class="st0" d="M2012.2,1324h18v131.1h-14.7l-75-99v99h-18V1324h14.5l75.1,99.1L2012.2,1324z"/>
		<path class="st0" d="M2127.2,1448.4c-9.2-5.5-16.5-13.6-21.1-23.3c-5-10-7.4-21.9-7.4-35.5c0-13.8,2.5-25.7,7.3-35.8
			c4.5-9.7,11.9-17.8,21.1-23.3c9.2-5.4,20-8.1,32.4-8.1c12.5,0,23.4,2.7,32.5,8.1c9.2,5.4,16.6,13.5,21.1,23.3
			c4.9,10.1,7.3,22,7.3,35.6s-2.4,25.5-7.3,35.6c-4.5,9.7-11.9,17.8-21.1,23.3c-9.2,5.5-20,8.2-32.5,8.2
			C2147.1,1456.6,2136.3,1453.9,2127.2,1448.4z M2190.2,1427.6c7.3-8.9,11-21.6,11-38.1s-3.6-29.2-10.9-38
			c-7.3-8.9-17.5-13.3-30.8-13.3c-13,0-23.2,4.4-30.4,13.3s-10.9,21.5-10.9,38c0,16.5,3.6,29.2,10.9,38.1s17.4,13.4,30.4,13.4
			C2172.7,1441,2182.9,1436.5,2190.2,1427.6L2190.2,1427.6z"/>
		<path class="st0" d="M2395.3,1455.1h-21.2l-22.3-42c-2.5-4.5-5.4-7.6-8.8-9.4s-7.9-2.7-13.5-2.7h-21.6v54.1h-19V1324h55.8
			c14.5,0,25.6,3.2,33.2,9.7c7.6,6.4,11.4,15.9,11.4,28.3c0,10.1-2.8,18.3-8.5,24.7c-5.6,6.4-13.7,10.5-24.1,12.3
			c6.4,2,11.8,6.8,16,14.5L2395.3,1455.1z M2342.5,1385.6c9.7,0,16.8-1.9,21.5-5.7c4.7-3.8,7-9.6,7-17.6c0-7.9-2.3-13.7-6.9-17.4
			s-11.8-5.5-21.6-5.5h-34.8v46.1H2342.5z"/>
		<path class="st0" d="M2487.2,1455.1V1340H2443v-16H2551v16h-44.5v115.1H2487.2z"/>
		<path class="st0" d="M2703.2,1324h19v131.1h-19v-58.8h-73.3v58.8h-19V1324h19v56.7h73.3V1324z"/>
		<path class="st0" d="M2795,1455.1V1324h85.2v15.4h-66.4v41.3h62.7v15.6h-62.7v43.3h66.4v15.4H2795z"/>
		<path class="st0" d="M3052.6,1455.1h-21.2l-22.3-42c-2.5-4.5-5.4-7.6-8.8-9.4c-3.4-1.8-7.9-2.7-13.5-2.7h-21.6v54.1h-19V1324h55.8
			c14.5,0,25.6,3.2,33.2,9.7c7.6,6.4,11.5,15.9,11.5,28.3c0,10.1-2.8,18.3-8.5,24.7c-5.6,6.4-13.7,10.5-24.1,12.3
			c6.4,2,11.8,6.8,16,14.5L3052.6,1455.1z M2999.8,1385.6c9.7,0,16.8-1.9,21.5-5.7s7-9.6,7-17.6c0-7.9-2.3-13.7-6.9-17.4
			c-4.6-3.7-11.8-5.5-21.6-5.5h-34.8v46.1H2999.8z"/>
		<path class="st0" d="M3206.7,1324h18v131.1H3210l-75-99v99h-18V1324h14.5l75.2,99.1L3206.7,1324z"/>
		<path class="st0" d="M3489.4,1455.1l-14-32.4H3409l-14,32.4h-19.3l58.4-131.1h16l58.4,131.1H3489.4z M3415.5,1407.5h53.4
			l-26.6-62.1L3415.5,1407.5z"/>
		<path class="st0" d="M3581.7,1452.5c-8-2.5-15.5-6.6-21.9-12.1l6.9-14.2c5.9,4.9,12.7,8.7,20,11.3c7.5,2.4,15.3,3.6,23.2,3.4
			c9.8,0,17.4-1.8,22.7-5.5c5.3-3.7,8-8.8,8-15.5c0.2-5.3-2.7-10.3-7.4-12.8c-5-2.8-12.9-5.4-23.8-7.9c-8.8-1.7-17.4-4.3-25.7-7.6
			c-6.2-2.4-11.6-6.4-15.7-11.6c-3.8-4.9-5.7-11.1-5.7-18.7c-0.2-7.2,1.9-14.3,6-20.3c4-5.8,9.7-10.4,17.2-13.7
			c7.5-3.3,16.1-4.9,25.8-4.9c8.8-0.1,17.6,1.4,26,4.2c7.5,2.4,14.3,6.5,20,12l-6.7,14.1c-5.6-4.7-11.9-8.4-18.7-11.1
			c-6.5-2.4-13.4-3.7-20.4-3.6c-9.4,0-16.8,2-22.2,5.9s-8.1,9.3-8.1,16.3c0,6,2.4,10.4,7.1,13.5s12.3,5.8,22.7,8.3
			c9,1.9,17.9,4.5,26.5,7.7c6.2,2.3,11.8,6.1,16.2,11c4,4.7,6,10.7,6,18.1c0.2,7.1-1.9,14.1-6,19.9c-4,5.7-9.8,10.1-17.3,13.2
			c-7.5,3.1-16.4,4.6-26.7,4.7C3600.2,1456.7,3590.8,1455.3,3581.7,1452.5z"/>
		<path class="st0" d="M3725.8,1455.1V1324h19.2v131.1H3725.8z"/>
		<path class="st0" d="M3918.1,1455.1l-14-32.4h-66.4l-14,32.4h-19.3l58.4-131.1h16l58.4,131.1H3918.1z M3844.3,1407.5h53.4
			l-26.6-62.1L3844.3,1407.5z"/>
	</g>
	<g id="KZ_Flag_round">
		
			<ellipse transform="matrix(0.7071 -0.7071 0.7071 0.7071 945.2018 3435.7358)" class="st3" cx="4619.9" cy="576.9" rx="97.7" ry="97.7"/>
		<circle class="st4" cx="4646.7" cy="563.3" r="26.3"/>
		<g id="c">
			<g id="b">
				<path id="a" class="st4" d="M4646.7,533.4c1.1,0.1,2.1-0.7,2.2-1.8c0-0.1,0-0.2,0-0.3c0-1.6-2.2-9-2.2-9s-2.2,7.4-2.2,9
					c-0.1,1.1,0.7,2.1,1.8,2.2C4646.5,533.4,4646.6,533.4,4646.7,533.4z"/>
				<path id="a-2" class="st4" d="M4676.6,563.3c-0.1,1.1,0.7,2.1,1.8,2.2c0.1,0,0.2,0,0.3,0c1.6,0,9-2.2,9-2.2s-7.4-2.2-9-2.2
					c-1.1-0.1-2.1,0.7-2.2,1.8C4676.6,563,4676.6,563.2,4676.6,563.3z"/>
				<path id="a-3" class="st4" d="M4646.7,593.1c-1.1-0.1-2.1,0.7-2.2,1.8c0,0.1,0,0.2,0,0.3c0,1.6,2.2,9,2.2,9s2.2-7.4,2.2-9
					c0.1-1.1-0.7-2.1-1.8-2.2C4646.9,593.1,4646.8,593.1,4646.7,593.1z"/>
				<path id="a-4" class="st4" d="M4616.9,563.3c0.1-1.1-0.7-2.1-1.8-2.2c-0.1,0-0.2,0-0.3,0c-1.6,0-9,2.2-9,2.2s7.4,2.2,9,2.2
					c1.1,0.1,2.1-0.7,2.2-1.8C4616.9,563.5,4616.9,563.4,4616.9,563.3z"/>
			</g>
			<g id="b-2">
				<path id="a-5" class="st4" d="M4658.2,535.7c1,0.5,2.2,0.1,2.7-0.9c0.1-0.1,0.1-0.2,0.1-0.3c0.6-1.5,1.5-9.2,1.5-9.2
					s-4.8,6.1-5.4,7.5c-0.5,1-0.1,2.2,0.8,2.7C4657.9,535.6,4658.1,535.6,4658.2,535.7z"/>
				<path id="a-6" class="st4" d="M4674.3,574.7c-0.5,1-0.1,2.2,0.9,2.7c0.1,0.1,0.2,0.1,0.3,0.1c1.5,0.6,9.2,1.5,9.2,1.5
					s-6.1-4.8-7.5-5.4c-1-0.5-2.2-0.1-2.7,0.8C4674.4,574.5,4674.4,574.6,4674.3,574.7z"/>
				<path id="a-7" class="st4" d="M4635.3,590.9c-1-0.5-2.2-0.1-2.7,0.9c0,0.1-0.1,0.2-0.1,0.3c-0.6,1.4-1.5,9.1-1.5,9.1
					s4.8-6.1,5.4-7.5c0.5-1,0.1-2.2-0.8-2.7C4635.5,590.9,4635.4,590.9,4635.3,590.9z"/>
				<path id="a-8" class="st4" d="M4619.1,551.8c0.5-1,0.1-2.2-0.9-2.7c-0.1,0-0.2-0.1-0.3-0.1c-1.5-0.6-9.2-1.5-9.2-1.5
					s6.1,4.8,7.5,5.4c1,0.5,2.2,0.1,2.7-0.8C4619,552,4619.1,551.9,4619.1,551.8z"/>
			</g>
			<g id="b-3">
				<path id="a-9" class="st4" d="M4667.9,542.1c0.7,0.8,2,1,2.8,0.2c0.1-0.1,0.2-0.2,0.2-0.2c1.1-1.1,4.8-7.9,4.8-7.9
					s-6.8,3.8-7.9,4.9c-0.8,0.7-1,2-0.2,2.8C4667.7,542,4667.8,542.1,4667.9,542.1z"/>
				<path id="a-10" class="st4" d="M4667.9,584.4c-0.8,0.7-1,2-0.2,2.8c0.1,0.1,0.2,0.2,0.2,0.2c1.1,1.1,7.9,4.9,7.9,4.9
					s-3.8-6.8-4.8-7.9c-0.7-0.8-2-1-2.8-0.2C4668,584.2,4667.9,584.3,4667.9,584.4z"/>
				<path id="a-11" class="st4" d="M4625.6,584.4c-0.7-0.8-2-1-2.8-0.2c-0.1,0.1-0.2,0.2-0.2,0.2c-1.1,1.1-4.8,7.9-4.8,7.9
					s6.8-3.8,7.9-4.9c0.8-0.7,1-2,0.2-2.8C4625.8,584.5,4625.7,584.4,4625.6,584.4z"/>
				<path id="a-12" class="st4" d="M4625.6,542.1c0.8-0.7,1-2,0.2-2.8c-0.1-0.1-0.2-0.2-0.2-0.2c-1.1-1.1-7.9-4.8-7.9-4.8
					s3.8,6.8,4.8,7.9c0.7,0.8,2,1,2.8,0.2C4625.5,542.3,4625.5,542.2,4625.6,542.1z"/>
			</g>
			<g id="b-4">
				<path id="a-13" class="st4" d="M4674.3,551.8c0.3,1.1,1.5,1.6,2.5,1.3c0.1,0,0.2-0.1,0.3-0.1c1.4-0.6,7.5-5.4,7.5-5.4
					s-7.7,0.9-9.2,1.5c-1.1,0.3-1.6,1.5-1.3,2.5C4674.2,551.6,4674.3,551.7,4674.3,551.8z"/>
				<path id="a-14" class="st4" d="M4658.2,590.9c-1.1,0.3-1.6,1.5-1.3,2.5c0,0.1,0.1,0.2,0.1,0.3c0.6,1.4,5.4,7.5,5.4,7.5
					s-0.9-7.7-1.5-9.1c-0.3-1.1-1.5-1.6-2.5-1.3C4658.4,590.8,4658.3,590.8,4658.2,590.9z"/>
				<path id="a-15" class="st4" d="M4619.1,574.7c-0.3-1.1-1.5-1.6-2.5-1.3c-0.1,0-0.2,0.1-0.3,0.1c-1.4,0.6-7.5,5.4-7.5,5.4
					s7.7-0.9,9.2-1.5c1.1-0.3,1.6-1.5,1.3-2.5C4619.2,574.9,4619.2,574.8,4619.1,574.7z"/>
				<path id="a-16" class="st4" d="M4635.3,535.7c1.1-0.3,1.6-1.5,1.3-2.5c0-0.1-0.1-0.2-0.1-0.3c-0.6-1.4-5.4-7.5-5.4-7.5
					s0.9,7.7,1.5,9.2c0.3,1.1,1.5,1.6,2.5,1.3C4635.1,535.7,4635.2,535.7,4635.3,535.7z"/>
			</g>
		</g>
		<g id="c-2">
			<g id="b-5">
				<path id="a-17" class="st4" d="M4652.6,534c1.1,0.3,2.2-0.3,2.5-1.4c0-0.1,0.1-0.2,0.1-0.3c0.3-1.5-0.3-9.3-0.3-9.3
					s-3.6,6.9-3.9,8.4c-0.3,1.1,0.3,2.2,1.4,2.5C4652.3,533.9,4652.4,533.9,4652.6,534z"/>
				<path id="a-18" class="st4" d="M4676,569.1c-0.3,1.1,0.3,2.2,1.4,2.5c0.1,0,0.2,0.1,0.3,0.1c1.5,0.3,9.3-0.3,9.3-0.3
					s-6.9-3.6-8.4-3.9c-1.1-0.3-2.2,0.3-2.5,1.4C4676.1,568.9,4676,569,4676,569.1z"/>
				<path id="a-19" class="st4" d="M4640.9,592.6c-1.1-0.3-2.2,0.3-2.5,1.4c0,0.1-0.1,0.2-0.1,0.3c-0.3,1.5,0.3,9.3,0.3,9.3
					s3.6-6.9,3.9-8.4c0.3-1.1-0.3-2.2-1.4-2.5C4641.1,592.6,4641,592.6,4640.9,592.6z"/>
				<path id="a-20" class="st4" d="M4617.4,557.4c0.3-1.1-0.3-2.2-1.4-2.5c-0.1,0-0.2-0.1-0.3-0.1c-1.5-0.3-9.3,0.4-9.3,0.4
					s6.9,3.6,8.4,3.9c1.1,0.3,2.2-0.3,2.5-1.4C4617.4,557.6,4617.4,557.5,4617.4,557.4z"/>
			</g>
			<g id="b-6">
				<path id="a-21" class="st4" d="M4663.3,538.4c0.9,0.7,2.1,0.5,2.8-0.3c0.1-0.1,0.1-0.2,0.2-0.3c0.9-1.3,3.2-8.7,3.2-8.7
					s-5.9,5-6.8,6.3c-0.7,0.9-0.6,2.1,0.3,2.8C4663.1,538.3,4663.2,538.4,4663.3,538.4z"/>
				<path id="a-22" class="st4" d="M4671.6,579.9c-0.7,0.9-0.5,2.1,0.3,2.8c0.1,0.1,0.2,0.1,0.3,0.2c1.3,0.9,8.7,3.2,8.7,3.2
					s-5-5.9-6.3-6.8c-0.9-0.7-2.1-0.6-2.8,0.3C4671.7,579.7,4671.6,579.8,4671.6,579.9z"/>
				<path id="a-23" class="st4" d="M4630.1,588.1c-0.9-0.7-2.1-0.5-2.8,0.3c-0.1,0.1-0.1,0.2-0.2,0.3c-0.9,1.3-3.2,8.7-3.2,8.7
					s5.9-5,6.8-6.3c0.7-0.9,0.6-2.1-0.3-2.8C4630.3,588.2,4630.2,588.2,4630.1,588.1z"/>
				<path id="a-24" class="st4" d="M4621.9,546.7c0.7-0.9,0.5-2.1-0.3-2.8c-0.1-0.1-0.2-0.1-0.3-0.2c-1.3-0.9-8.7-3.2-8.7-3.2
					s5,5.9,6.3,6.8c0.9,0.7,2.1,0.6,2.8-0.3C4621.8,546.9,4621.8,546.8,4621.9,546.7z"/>
			</g>
			<g id="b-7">
				<path id="a-25" class="st4" d="M4671.6,546.7c0.5,1,1.8,1.3,2.7,0.8c0.1-0.1,0.2-0.1,0.3-0.2c1.3-0.9,6.3-6.8,6.3-6.8
					s-7.4,2.3-8.7,3.2c-1,0.5-1.3,1.7-0.8,2.7C4671.4,546.5,4671.5,546.6,4671.6,546.7z"/>
				<path id="a-26" class="st4" d="M4663.3,588.1c-1,0.5-1.3,1.8-0.8,2.7c0.1,0.1,0.1,0.2,0.2,0.3c0.9,1.3,6.8,6.3,6.8,6.3
					s-2.3-7.4-3.2-8.7c-0.5-1-1.7-1.3-2.7-0.8C4663.5,588,4663.4,588,4663.3,588.1z"/>
				<path id="a-27" class="st4" d="M4621.9,579.9c-0.5-1-1.8-1.3-2.7-0.8c-0.1,0.1-0.2,0.1-0.3,0.2c-1.3,0.9-6.3,6.8-6.3,6.8
					s7.4-2.3,8.7-3.2c1-0.5,1.3-1.7,0.8-2.7C4622,580,4621.9,579.9,4621.9,579.9z"/>
				<path id="a-28" class="st4" d="M4630.1,538.4c1-0.5,1.3-1.8,0.8-2.7c-0.1-0.1-0.1-0.2-0.2-0.3c-0.9-1.3-6.8-6.3-6.8-6.3
					s2.3,7.4,3.2,8.7c0.5,1,1.7,1.3,2.7,0.8C4629.9,538.5,4630,538.5,4630.1,538.4z"/>
			</g>
			<g id="b-8">
				<path id="a-29" class="st4" d="M4676,557.4c0.1,1.1,1.1,1.9,2.2,1.7c0.1,0,0.2,0,0.3-0.1c1.5-0.3,8.4-3.9,8.4-3.9
					s-7.7-0.7-9.3-0.4c-1.1,0.1-1.9,1.1-1.8,2.2C4676,557.2,4676,557.3,4676,557.4z"/>
				<path id="a-30" class="st4" d="M4652.6,592.6c-1.1,0.1-1.9,1.1-1.8,2.2c0,0.1,0,0.2,0.1,0.3c0.3,1.5,3.9,8.4,3.9,8.4
					s0.7-7.7,0.3-9.3c-0.1-1.1-1.1-1.9-2.2-1.8C4652.8,592.5,4652.7,592.5,4652.6,592.6z"/>
				<path id="a-31" class="st4" d="M4617.4,569.1c-0.1-1.1-1.1-1.9-2.2-1.7c-0.1,0-0.2,0-0.3,0.1c-1.5,0.3-8.4,3.9-8.4,3.9
					s7.7,0.6,9.3,0.3c1.1-0.1,1.9-1.1,1.8-2.2C4617.5,569.3,4617.5,569.2,4617.4,569.1z"/>
				<path id="a-32" class="st4" d="M4640.9,534c1.1-0.1,1.9-1.1,1.7-2.2c0-0.1,0-0.2-0.1-0.3c-0.3-1.5-3.9-8.4-3.9-8.4
					s-0.7,7.7-0.3,9.3c0.1,1.1,1.1,1.9,2.2,1.8C4640.7,534,4640.8,534,4640.9,534z"/>
			</g>
		</g>
		<path class="st4" d="M4642,620.3c-0.7,0-1.4,0.1-2.1,0.3c-0.9,0.1-1.8,0.4-2.7,0.6l-0.4,0.1l-0.6,0.1c0,0.2,0.1,0.3,0.1,0.5
			c0,0.2,0,0.3-0.1,0.5c-0.1,0.2-0.1,0.3-0.3,0.4c-0.1,0.1-0.3,0.3-0.4,0.3c-0.2,0.1-0.3,0.1-0.5,0.1c-0.2,0-0.4,0-0.5-0.1
			c-0.2-0.1-0.3-0.2-0.5-0.3c-0.2,0-0.4,0.1-0.5,0.1c-0.2,0-0.3,0-0.5,0c-0.2,0-0.4-0.1-0.5-0.2c-0.2-0.1-0.3-0.2-0.5-0.3
			c-0.7,0.3-1.3,0.8-1.8,1.5c-0.2,0.3-0.3,0.6-0.3,1c0,0.5,0.1,0.9,0.3,1.4c0.1,0.1,0.1-0.5,0.3-0.5c0.4-0.3,0.8-0.5,1.3-0.7
			c0.4-0.2,0.3,0,0.2,0.3c0,0.2-0.3,0.8,0,0.5c1.4-0.5,2.8-0.8,4.2-0.8c2.1-0.2,4.2-0.3,6.2-0.3c2.1,0,3.9,0.1,5.9,0.1
			c0.9,0.1,1.9,0.1,2.8,0.1c0.2-0.1,0.6-0.1,0.7-0.2c-0.4-0.2-0.9-0.3-1.4-0.3h-3.6c-1.1,0-2.1-0.2-3.1-0.5
			c-0.3-0.1-0.5-0.4-0.8-0.1c-0.4,0.1-0.8,0.2-1.2,0.3c-0.7,0-1.4-0.1-2-0.3c0.5-0.6,1-1.2,1.5-1.8c-0.4-0.1-0.8-0.2-1.2-0.3
			C4640.7,621.3,4641.4,620.8,4642,620.3L4642,620.3z"/>
		<path class="st4" d="M4672.5,627c-1.4,0.8-2.5-0.7-3.7-1.1c-0.8,0.5-0.9,2-1.7,2.7c-0.9,1.1-2.1-0.3-2-1.4c-1.1,1-1.7,3.1-3.5,2.8
			c-0.9-0.7-1.5-2.2-2.2-0.5c-0.5,0.8-2,2-2.7,0.8c-0.2-1.1-0.8-2.4-1.4-0.6c-0.3,1.2-1.6,2-2.9,1.6c0,0-0.1,0-0.1,0
			c-0.7-0.6,0.6-2.7-0.3-2.5c-1.3,0.9-2.1,3.1-4,2.9c-0.7-0.8,0.4-2.2-0.4-3.1c-0.9,1.2-2,2.9-3.6,3.1c-0.8-0.6,0-2.4-0.5-2.7
			c-1.7,1-3.4,2.8-5.5,2.2c0.8-3.1,4.2-4.2,7-4.4c4.9-0.6,10.1,0.5,14.8-1.3c0.8-0.5,2.6-1.1,2-2.2c-0.6-0.8,1.5-0.5,1.7-1.5
			c-0.1-1.3,1-1.1,2-1.2c4.8-0.2,9.5,0.8,14.2,1c0.3,2.3-2.2,3.9-4.3,3.2c-1,0.2-2.5-2.3-2.2-0.5
			C4673.1,625.2,4673.2,626.4,4672.5,627 M4631.9,622.3c1.1,1,1.9-0.2,2.9-0.6c3.4-1.3,6.6-3.1,9.5-5.3c1.8-1.5,3.4-3.4,5.8-3.9
			c4.7-1.4,9.7-1.3,14.5-2.6c3.6-4.9,9.7-6.7,14.9-9.5c1-0.4,1.8-1.3,2-2.3c2-3.1,4.6-5.8,7.8-7.7c1.5-0.9,3.3-1.2,5-0.9
			c-0.2,2-1.2,3.8-2.7,5.2c1.1,0,2.1-0.8,3.3-0.7c0.4,2.1-1.8,3.2-3,4.4c0.7,0.1,3.2,0.4,1.8,1c-1.8,1.2-3.8,2.1-5.4,3.5
			c1.5,0.3,1.7,0.6,0.2,1.1c-0.8,0.6-2.4,0.8-2.6,1.8c1.1,0.7-0.5,1.4-1.2,1.6c-1.2,0.3-2.5,0.8-0.9,1.7c-0.8,0.8-1.9,1.2-3,1
			c0.3,1,0.8,2.2-0.6,2.7c-3,2.4-6.7,3.9-10.5,4.4c4.8,0.5,9.7-0.6,13.8-3.1c0.5-0.6,3.4-1.3,1.8-1.9c-0.7-0.3-2.3-0.7-2.5-1.2
			c2.2-1.4,5-0.9,7.4-1.7c0.1-0.8-1.8-0.6-2.5-0.7c-1.7-0.1-1.6-0.6,0-0.7c2-0.5,4.3-0.6,6.1-2c-1.4-0.6-3.2-0.1-4.6-0.6
			c2.5-1.1,5.5-1.2,7.8-2.9c1-1.1-1.3-0.8-2-0.8c-1.4,0.3-2-0.4-0.5-1c2.7-2,6.2-3.3,8-6.2c0.5-0.6,1.1-2.6-0.4-1.9
			c-1.9,0.6-3.5,2.8-5.7,2.1c4.4-3.2,8.2-7.1,11.2-11.6c0.2-1.3-1.9-1.5-2.5-0.4c-2.7,2.6-5.2,5.7-8.7,7.4c3.3-3.3,6.2-7,8.5-11
			c0.5-1.2,1.9-2.6,1.2-3.9c-1.2-1-2.7-0.1-3.4,1.1c-2.1,2.8-3.7,6-6.5,8.3c2.4-4.6,4.9-9.4,4.9-14.7c0-1.1-0.2-2.7-1.7-2.5
			c-1.2,0.2-0.9,2-1.4,2.8c-1.1,3.6-1.6,7.5-3.7,10.6c0.5-2.9,1.3-6,0.7-8.9c-0.3-1.3-2.4-0.8-2.2,0.5
			c-2.5,12.9-11.2,24.1-22.5,30.6c-5.2,2.9-10.9,4.8-16.8,5.7c-1.6,0.3-3.3,0.1-4.8,0.7c-3.7,2.8-5.9,7.5-10.5,9
			c-2.1,1-4.8,1.2-6.3,3.2C4632,621.7,4631.9,621.9,4631.9,622.3"/>
		<path class="st4" d="M4645.8,609.2c-0.6,1.3-1.2,2.6-2,3.8c-2.7-2.4-6.5-2.3-9.8-2.5c-2.8-0.2-5.8-0.4-7.9-2.4
			c-2.1-2-4.1-4.2-6.6-5.7c-2.3-0.5-4.6-1.5-6.5-3c-4-3.2-6.2-8-10.1-11.3c-0.8-0.7-1.6-1.3-2.4-1.9c-0.8,0.2-0.4,1.9-1.4,1
			c-0.5-0.4-1.8-0.4-1.9,0.1c1.3,1.5,2.2,3.3,2.5,5.3c-0.8,0.1-2.2-0.2-2.6,0.1c1.1,1.6,2.4,3,4,4.2c-0.8,0.1-2.2,0-2.5,0.4
			c1.5,1.4,3.3,2.4,5.2,2.9c0.4,0.5-0.6,1.6,0.3,2.1c0.5,0.2,2.1,0.5,1,1.1c-0.4,0.2-0.6,0.8-0.3,1.3c0.2,0.3,0.5,0.5,0.8,0.5
			c0.6,0.3,2,0.4,2.2,1c-0.6,0.6-2.3,1.2-0.8,1.8c1.4,0.8,2.9,1.2,4.5,1.3c-0.8,0.7-1.8,1-2.6,1.7c3.7,2,7.6,3.6,11.6,4.9
			c1.6,0.6,3.2,1,4.8,1.3c-4.7-0.4-9.4-1.6-13.7-3.6c-2.3-1-4.5-1.9-6.8-2.8c1-0.5,2.2-0.6,3.2-1.1c-2.2-0.4-4.5-0.6-6.5-1.8
			c0.3-0.5,1.4-0.5,2-0.8c1.2-0.3,1.9-0.6,0.2-0.7c-1.6-0.4-3.5-0.2-5-1.2c0.1-0.6,1.6-0.4,2.2-0.6c0.8,0,1.6-0.3,2.3-0.8
			c-2.5-1-5.9-0.3-7.8-2.5c-0.5-0.9,1.4-0.2,2-0.3c1.4,0,2.8,0.4,4.1-0.1c-3.7-1.6-7.7-3.1-10.5-6.1c-0.3-0.5-1.3-1.8-0.5-2
			c2.2,0.3,3.8,2.7,6.1,2.3c0.3-0.4-1.4-1.1-1.8-1.7c-3.5-2.9-6.6-6.2-9.2-10c-0.2-1.3,1.9-1.5,2.4-0.5c2.6,2.5,5,5.5,8.3,7.2
			c1.2,0.6-0.7-0.7-0.9-1.1c-3.1-3.4-5.8-7.2-8-11.3c-0.4-0.7-1-2.1,0.1-2.5c1.1-0.4,2.3,0.1,2.8,1.2c2.2,2.8,3.8,6.1,6.6,8.4
			c-2.3-4.6-4.9-9.4-4.9-14.6c0-1,0.1-2.6,1.5-2.5c1.2-0.2,1,1.3,1.4,2c1.1,3.9,1.6,8,3.9,11.5c-0.5-2.9-1.3-5.8-0.8-8.7
			c0.1-0.6,0.6-1.1,1.3-1c0.2,0,0.5,0.1,0.6,0.3c0.6,1.4,0.7,3.1,1.2,4.6c3,10.1,9.5,18.9,18.2,24.9c7.1,4.9,15.5,7.7,24.1,8.3
			C4644.2,609.1,4645,609.1,4645.8,609.2"/>
		<circle class="st4" cx="4634.9" cy="622" r="0.5"/>
		<circle class="st5" cx="4634.9" cy="622" r="0.2"/>
		<path class="st4" d="M4549.1,509.6c1.5,0.2,2.6,1.5,2.7,3c0,2-1,2.9-2.1,2.9c-1.3,0-1.8-0.5-1.8-1.4c0-0.6,0.3-0.9,0.7-0.9
			c1.1,0,0.8,1.5,0.8,1.5c0.5-0.1,0.9-0.6,0.8-1.2c0-0.1,0-0.2-0.1-0.2c0.4-0.1,0.8-0.3,1.1-0.6c-0.3-0.3-0.7-0.5-1.1-0.6
			c0.3-0.5,0.1-1.1-0.4-1.3c-0.1-0.1-0.3-0.1-0.4-0.1c0.1,0.3,0.2,0.6,0.1,0.9c-1.2-0.4-2.5,0.2-2.9,1.4c-0.1,0.3-0.1,0.5-0.1,0.8
			c-0.1,1.8,1.2,3.3,3,3.4c0.3,0,0.7,0,1-0.1c-0.6,0.3-1,0.9-1,1.6c0.3-0.1,0.7-0.2,1-0.2c-0.5,0.6-0.7,1.3-0.7,2.1
			c0.5-0.2,0.9-0.6,1.6-0.4c-1,1.9,0.2,4.6,3.3,5.2c-1-1.1-1.6-2.6-1.7-4.2c0-4.6,1.3-5.4,1.3-8.5c0-1.5-0.8-2.9-2-3.7
			c0.7-0.2,1.4-0.6,1.8-1.3l0,0c-0.4-0.7-1.1-1.1-1.8-1.1C4551.2,507.4,4550.1,508.5,4549.1,509.6z"/>
		<path class="st4" d="M4554.1,646.3L4554.1,646.3c-0.4-0.6-1-1.1-1.8-1.3c1.2-0.9,2-2.2,2-3.7c0-3.2-1.3-4-1.3-8.6
			c0-1.5,0.6-3,1.7-4.2c-3.1,0.6-4.3,3.3-3.3,5.2c-0.6,0.3-1.1-0.2-1.6-0.4c0,0.8,0.2,1.5,0.7,2.1c-0.3,0-0.7-0.1-1-0.2
			c0,0.7,0.4,1.3,1,1.6c-1.7-0.4-3.5,0.6-3.9,2.3c-0.1,0.3-0.1,0.7-0.1,1c-0.1,1.3,0.9,2.3,2.2,2.4c0.3,0,0.6,0,0.8-0.1
			c0.1,0.3,0,0.6-0.1,0.9c0.6,0,1-0.5,0.9-1.1c0-0.1,0-0.3-0.1-0.4c0.4-0.1,0.8-0.3,1.1-0.6c-0.3-0.3-0.7-0.5-1.1-0.6
			c0.2-0.5,0-1.1-0.5-1.3c-0.1,0-0.2-0.1-0.2-0.1c0,0,0.3,1.5-0.8,1.5c-0.4,0-0.7-0.3-0.7-0.9c0-0.9,0.5-1.4,1.8-1.4
			c1.1,0,2.1,0.9,2.1,2.9c-0.1,1.5-1.2,2.8-2.7,3c1,1.1,2.1,2.1,3.1,3.1C4553,647.4,4553.7,646.9,4554.1,646.3z"/>
		<path class="st4" d="M4555.6,537.1c0-1.5-0.4-3-1.1-4.3c0,0-6.2-12.9-8.6-17.9c-0.2-0.4-0.3-0.9-0.3-1.4c-3.3,3.9-6.3,8-8.9,12.3
			c-1.8,3.8-3.4,7-3.4,7c-0.7,1.3-1.1,2.8-1.1,4.3c0,2.8,1.8,4.9,5,5.1c-3.3,0.3-5,2.4-5,5.1c0,1.5,0.4,3,1.1,4.3
			c0,0,6.2,12.9,8.6,17.9c0.3,0.7,0.5,1.6,0.4,2.4c0,1.7-1.4,3.1-3.2,3.1c-1.7,0-3.1-1.4-3.1-3.2c0-2,1-2.8,2.1-2.8
			c1.3,0,1.8,0.5,1.8,1.4c0,0.6-0.3,0.9-0.7,0.9c-1.1,0-0.8-1.5-0.8-1.5c-0.5,0.1-0.9,0.6-0.8,1.2c0,0.1,0,0.1,0.1,0.2
			c-0.4,0.1-0.8,0.3-1.1,0.6c0.3,0.3,0.7,0.5,1.1,0.6c-0.3,0.5-0.1,1.1,0.4,1.3c0.1,0.1,0.3,0.1,0.4,0.1c-0.1-0.3-0.2-0.6-0.1-0.9
			c1.2,0.4,2.5-0.2,2.9-1.4c0.1-0.3,0.1-0.6,0.1-0.8c0.1-1.8-1.2-3.3-3-3.4c-0.3,0-0.7,0-1,0.1c0.6-0.3,1-0.9,1-1.6
			c-0.3,0.1-0.7,0.2-1,0.2c0.5-0.6,0.7-1.3,0.7-2.1c-0.5,0.2-1,0.6-1.6,0.4c1-1.9-0.2-4.6-3.3-5.2c1,1.1,1.6,2.6,1.7,4.2
			c0,4.6-1.3,5.4-1.3,8.5c0,1.5,0.8,2.9,2,3.7c-0.7,0.2-1.4,0.6-1.8,1.3l0,0c0.4,0.6,1,1.1,1.8,1.3c-1.2,0.9-2,2.2-2,3.7
			c0,3.2,1.3,4,1.3,8.6c0,1.5-0.6,3-1.7,4.2c3.1-0.6,4.3-3.3,3.3-5.2c0.6-0.3,1.1,0.2,1.6,0.4c0-0.8-0.3-1.5-0.7-2.1
			c0.3,0,0.7,0.1,1,0.2c0-0.7-0.4-1.3-1-1.6c1.7,0.4,3.5-0.6,3.9-2.3c0.1-0.3,0.1-0.7,0.1-1c0.1-1.2-0.9-2.3-2.2-2.4
			c-0.3,0-0.6,0-0.8,0.1c-0.1-0.3,0-0.6,0.1-0.9c-0.6,0-1,0.5-0.9,1.1c0,0.1,0,0.3,0.1,0.4c-0.4,0.1-0.8,0.3-1.1,0.6
			c0.3,0.3,0.7,0.5,1.1,0.6c-0.2,0.5,0,1.1,0.5,1.3c0.1,0,0.2,0.1,0.2,0.1c0,0-0.3-1.5,0.8-1.5c0.4,0,0.7,0.3,0.7,0.9
			c0,0.9-0.5,1.4-1.8,1.4c-1.1,0-2.1-0.9-2.1-2.8c0-1.7,1.4-3.2,3.1-3.2c1.7,0,3.2,1.4,3.2,3.1c0.1,0.8-0.1,1.6-0.4,2.4
			c-2.4,5-8.6,17.9-8.6,17.9c-0.7,1.3-1.1,2.8-1.1,4.3c0,2.8,1.8,4.9,5,5.1c-3.3,0.3-5,2.4-5,5.1c0,1.5,0.4,3,1.1,4.3
			c0,0,1.5,3.2,3.4,7c2.7,4.3,5.6,8.4,8.9,12.3c0-0.5,0.1-1,0.3-1.4c2.4-5,8.6-17.9,8.6-17.9c0.7-1.3,1.1-2.8,1.1-4.3
			c0-2.8-1.8-4.9-5-5.1c3.3-0.3,5-2.4,5-5.1c0-1.5-0.4-3-1.1-4.3c0,0-6.2-12.9-8.6-17.9c-0.3-0.7-0.5-1.6-0.4-2.4
			c0-1.7,1.4-3.1,3.2-3.1c1.7,0,3.1,1.4,3.1,3.2l0,0c0,2-1,2.9-2.1,2.9c-1.3,0-1.8-0.5-1.8-1.4c0-0.6,0.3-0.9,0.7-0.9
			c1.1,0,0.8,1.5,0.8,1.5c0.5-0.1,0.9-0.6,0.8-1.2c0-0.1,0-0.2-0.1-0.2c0.4-0.1,0.8-0.3,1.1-0.6c-0.3-0.3-0.7-0.5-1.1-0.6
			c0.3-0.5,0.1-1.1-0.4-1.3c-0.1-0.1-0.3-0.1-0.4-0.1c0.1,0.3,0.2,0.6,0.1,0.9c-1.2-0.4-2.5,0.2-2.9,1.4c-0.1,0.3-0.1,0.6-0.1,0.8
			c-0.1,1.8,1.2,3.3,3,3.4c0.3,0,0.7,0,1-0.1c-0.6,0.3-1,0.9-1,1.6c0.3-0.1,0.7-0.2,1-0.2c-0.5,0.6-0.7,1.3-0.7,2.1
			c0.5-0.2,0.9-0.6,1.6-0.4c-1,1.9,0.2,4.6,3.3,5.2c-1-1.1-1.6-2.6-1.7-4.2c0-4.6,1.3-5.4,1.3-8.5c0-1.5-0.8-2.9-2-3.7
			c0.7-0.2,1.4-0.6,1.8-1.3l0,0c-0.4-0.6-1-1.1-1.8-1.3c1.2-0.9,2-2.2,2-3.7c0-3.2-1.3-4-1.3-8.5c0-1.5,0.6-3,1.7-4.2
			c-3.1,0.6-4.3,3.3-3.3,5.2c-0.6,0.3-1.1-0.1-1.6-0.4c0,0.8,0.2,1.5,0.7,2.1c-0.3,0-0.7-0.1-1-0.2c0,0.7,0.4,1.3,1,1.6
			c-1.7-0.4-3.5,0.6-3.9,2.3c-0.1,0.3-0.1,0.7-0.1,1c-0.1,1.2,0.9,2.3,2.2,2.4c0.3,0,0.6,0,0.8-0.1c0.1,0.3,0,0.6-0.1,0.9
			c0.6,0,1-0.5,0.9-1.1c0-0.1,0-0.3-0.1-0.4c0.4-0.1,0.8-0.3,1.1-0.6c-0.3-0.3-0.7-0.5-1.1-0.6c0.2-0.5,0-1.1-0.5-1.3
			c-0.1,0-0.1-0.1-0.2-0.1c0,0,0.3,1.5-0.8,1.5c-0.4,0-0.7-0.3-0.7-0.9c0-0.9,0.5-1.4,1.8-1.4c1.1,0,2.1,0.9,2.1,2.9
			c0,1.7-1.4,3.2-3.1,3.2c-1.7,0-3.2-1.4-3.2-3.1c-0.1-0.8,0.1-1.6,0.4-2.4c2.4-5,8.6-17.9,8.6-17.9c0.7-1.3,1.1-2.8,1.1-4.3
			c0-2.8-1.8-4.9-5-5.1C4553.9,541.9,4555.6,539.8,4555.6,537.1z M4553.3,617c0,0.9-0.2,1.8-0.6,2.6c-1.8,3.8-7.5,16-8.8,18.6l0,0
			c-1.2-2.6-7-14.8-8.8-18.6c-0.4-0.8-0.6-1.7-0.6-2.6c0-1.8,1.5-3.2,3.3-3.2c0,0,0,0,0.1,0c1.5-0.1,2.8,1,3,2.5
			c0,0.9-0.5,1.4-1.2,1.4c-1.7,0-1.5-1.4-1.2-2.3c-0.9,0.3-1.5,1.2-1.5,2.2c-0.6,0.1-1.2,0.4-1.7,0.9c0.4,0.5,1,0.9,1.7,0.9
			c-0.3,1.4,0.6,1.9,1.5,2.2c-0.3-1-0.5-2.1,1.2-2.1c1,0.2,2.1-0.2,2.8-1c0,1.1,0.1,5.3,0.1,5.3c0.1,1.6-2.1,1.5-3.5,1.1
			c0.5,1.8,1.6,2.8,4.1,2.6c-0.8,0.3-1.3,1.1-1.3,1.9c-0.7,1.1-0.4,2.6,0.7,3.3c1.1,0.7,2.6,0.4,3.3-0.7c0.5-0.8,0.5-1.7,0-2.5
			c0-0.8-0.5-1.6-1.3-1.9c2.5,0.3,3.6-0.7,4.1-2.6c-1.4,0.5-3.6,0.5-3.5-1.1c0,0,0.1-4.2,0.1-5.3c0.7,0.8,1.7,1.2,2.8,1
			c1.7,0,1.5,1.1,1.2,2.1c0.9-0.3,1.8-0.9,1.5-2.2c0.7,0,1.3-0.4,1.7-0.9c-0.4-0.5-1-0.8-1.7-0.9c0.1-1-0.5-1.9-1.5-2.2
			c0.3,0.9,0.4,2.3-1.2,2.3c-0.7,0-1.2-0.5-1.2-1.4c0.2-1.5,1.5-2.6,3-2.5C4551.8,613.8,4553.3,615.2,4553.3,617L4553.3,617z
			 M4538.7,611.6c0.9-2.9,3.9-4.5,6.8-3.6c1.7,0.5,3,1.9,3.6,3.6c-0.9,2.9-3.9,4.5-6.8,3.6C4540.6,614.6,4539.3,613.3,4538.7,611.6z
			 M4552.7,603.6c0.4,0.8,0.6,1.7,0.6,2.6c0,1.8-1.5,3.2-3.3,3.2c0,0,0,0-0.1,0c-1.5,0.1-2.8-1-3-2.5c0-0.9,0.5-1.4,1.2-1.4
			c1.7,0,1.6,1.4,1.2,2.3c0.9-0.3,1.5-1.2,1.5-2.2c0.6-0.1,1.2-0.4,1.7-0.9c-0.4-0.5-1-0.9-1.7-0.9c0.3-1.3-0.6-1.9-1.5-2.2
			c0.3,1,0.5,2.1-1.2,2.1c-1-0.2-2.1,0.2-2.8,1c0-1.1-0.1-5.3-0.1-5.3c-0.1-1.6,2.1-1.5,3.5-1.1c-0.5-1.8-1.6-2.8-4.1-2.6
			c0.8-0.3,1.3-1.1,1.3-1.9c0.7-1.1,0.4-2.6-0.7-3.3c-1.1-0.7-2.6-0.4-3.3,0.7c-0.5,0.8-0.5,1.7,0,2.5c0,0.8,0.5,1.6,1.3,1.9
			c-2.5-0.3-3.6,0.7-4.1,2.6c1.4-0.5,3.6-0.5,3.5,1.1c0,0-0.1,4.2-0.1,5.3c-0.7-0.8-1.7-1.2-2.8-1c-1.7,0-1.5-1.1-1.2-2.1
			c-0.9,0.3-1.8,0.9-1.5,2.2c-0.7,0-1.3,0.4-1.7,0.9c0.4,0.5,1,0.8,1.7,0.9c-0.1,1,0.5,1.9,1.5,2.2c-0.3-0.9-0.4-2.3,1.2-2.3
			c0.7,0,1.2,0.5,1.2,1.4c-0.2,1.5-1.5,2.6-3,2.5c-1.8,0.1-3.3-1.3-3.4-3.1c0,0,0,0,0-0.1c0-0.9,0.2-1.8,0.6-2.6
			c1.8-3.8,7.5-16,8.8-18.6l0,0C4545.1,587.5,4550.9,599.7,4552.7,603.6L4552.7,603.6z M4547.4,576.9l0.2,0.1L4547.4,576.9
			c-1.5,0.3-2.8,1.1-3.5,2.4l0,0c-0.8-1.3-2-2.1-3.5-2.3h-0.2c0.1,0,0.1,0,0.2-0.1c1.5-0.2,2.7-1.1,3.5-2.3l0,0
			C4544.7,575.8,4546,576.6,4547.4,576.9L4547.4,576.9z M4553.3,547.7c0,0.9-0.2,1.8-0.6,2.6c-1.8,3.8-7.5,16-8.8,18.6l0,0
			c-1.2-2.6-7-14.8-8.8-18.6c-0.4-0.8-0.6-1.7-0.6-2.6c0-1.8,1.5-3.2,3.3-3.2c0,0,0,0,0.1,0c1.5-0.1,2.8,1,3,2.5
			c0,0.9-0.5,1.4-1.2,1.4c-1.7,0-1.5-1.4-1.2-2.3c-0.9,0.3-1.5,1.2-1.5,2.2c-0.6,0.1-1.2,0.4-1.7,0.9c0.4,0.5,1,0.9,1.7,0.9
			c-0.3,1.3,0.6,1.9,1.5,2.2c-0.3-1-0.5-2.1,1.2-2.1c1,0.2,2.1-0.2,2.8-1c0,1.1,0.1,5.3,0.1,5.3c0.1,1.6-2.1,1.5-3.5,1.1
			c0.5,1.8,1.6,2.8,4.1,2.6c-0.8,0.3-1.3,1.1-1.3,1.9c-0.7,1.1-0.4,2.6,0.7,3.3c1.1,0.7,2.6,0.4,3.3-0.7c0.5-0.8,0.5-1.7,0-2.5
			c0-0.8-0.5-1.6-1.3-1.9c2.5,0.3,3.6-0.7,4.1-2.6c-1.4,0.5-3.6,0.5-3.5-1.1c0,0,0.1-4.2,0.1-5.3c0.7,0.8,1.7,1.2,2.8,1
			c1.7,0,1.5,1.1,1.2,2.1c0.9-0.3,1.8-0.9,1.5-2.2c0.7,0,1.3-0.4,1.7-0.9c-0.4-0.5-1-0.8-1.7-0.9c0.1-1-0.5-1.9-1.5-2.2
			c0.3,0.9,0.4,2.3-1.2,2.3c-0.7,0-1.2-0.5-1.2-1.4c0.2-1.5,1.5-2.6,3-2.5C4551.8,544.4,4553.2,545.9,4553.3,547.7L4553.3,547.7z
			 M4538.7,542.3c0.9-2.9,3.9-4.5,6.8-3.6c1.7,0.5,3,1.9,3.6,3.6c-0.9,2.9-3.9,4.5-6.8,3.6C4540.6,545.3,4539.3,544,4538.7,542.3z
			 M4549.9,540c-1.5,0.1-2.8-1-3-2.5c0-0.9,0.5-1.4,1.2-1.4c1.7,0,1.6,1.4,1.2,2.3c0.9-0.3,1.5-1.2,1.5-2.2c0.6-0.1,1.2-0.4,1.7-0.9
			c-0.4-0.5-1-0.9-1.7-0.9c0.3-1.4-0.6-1.9-1.5-2.2c0.3,1,0.5,2.1-1.2,2.1c-1-0.2-2.1,0.2-2.8,1c0-1.1-0.1-5.3-0.1-5.3
			c-0.1-1.6,2.1-1.5,3.5-1.1c-0.5-1.8-1.6-2.8-4.1-2.6c0.8-0.3,1.3-1.1,1.3-1.9c0.7-1.1,0.4-2.6-0.7-3.3c-1.1-0.7-2.6-0.4-3.3,0.7
			c-0.5,0.8-0.5,1.7,0,2.5c0,0.8,0.5,1.6,1.3,1.9c-2.5-0.3-3.6,0.7-4.1,2.6c1.4-0.5,3.6-0.5,3.5,1.1c0,0-0.1,4.2-0.1,5.3
			c-0.7-0.8-1.7-1.2-2.8-1c-1.7,0-1.5-1.1-1.2-2.1c-0.9,0.3-1.8,0.9-1.5,2.2c-0.7,0-1.3,0.4-1.7,0.9c0.4,0.5,1,0.8,1.7,0.9
			c-0.1,1,0.5,1.9,1.5,2.2c-0.3-0.9-0.4-2.3,1.2-2.3c0.7,0,1.2,0.5,1.2,1.4c-0.2,1.5-1.5,2.6-3,2.5c-1.8,0.1-3.3-1.3-3.4-3.1
			c0,0,0,0,0-0.1c0-0.9,0.2-1.8,0.6-2.6c1.8-3.8,7.5-16,8.8-18.6l0,0c1.2,2.6,7,14.8,8.8,18.6c0.4,0.8,0.6,1.7,0.6,2.6
			C4553.2,538.6,4551.7,540,4549.9,540L4549.9,540z"/>
		<g class="st6">
			<circle class="st0" cx="4619.9" cy="576.9" r="97.7"/>
		</g>
		<path class="st0" d="M4619.9,484.2c51.2,0,92.7,41.5,92.7,92.7s-41.5,92.7-92.7,92.7s-92.7-41.5-92.7-92.7c0,0,0,0,0,0
			C4527.2,525.7,4568.7,484.3,4619.9,484.2 M4619.9,479.2c-54,0-97.7,43.7-97.7,97.7s43.7,97.7,97.7,97.7s97.7-43.7,97.7-97.7
			c0,0,0,0,0,0C4717.6,522.9,4673.9,479.2,4619.9,479.2z"/>
	</g>
	<g id="RU_Flag_round">
		<path class="st0" d="M4527.7,279.1H4712c-13.8-39-50.7-65.1-92.1-65.1l0,0C4578.4,214,4541.5,240.1,4527.7,279.1z"/>
		<path class="st7" d="M4522.2,311.7c0,11.1,1.9,22.1,5.5,32.5H4712c3.7-10.5,5.6-21.5,5.6-32.6c0-11.1-1.9-22.1-5.6-32.6h-184.3
			C4524,289.6,4522.2,300.6,4522.2,311.7z"/>
		<path class="st8" d="M4712,344.3h-184.3c13.8,39,50.7,65.1,92.1,65.1C4661.3,409.4,4698.2,383.3,4712,344.3z"/>
		<g class="st6">
			<circle class="st0" cx="4619.9" cy="311.7" r="97.7"/>
		</g>
		<path class="st0" d="M4619.9,219c51.2,0.1,92.6,41.5,92.7,92.7c-0.1,51.2-41.5,92.6-92.7,92.7c-51.2-0.1-92.6-41.5-92.7-92.7
			C4527.3,260.5,4568.7,219.1,4619.9,219 M4619.9,214c-54,0-97.7,43.7-97.7,97.7s43.7,97.7,97.7,97.7c54,0,97.7-43.7,97.7-97.7
			S4673.9,214,4619.9,214z"/>
	</g>
	<g id="BY_Flag_round">
		<path class="st9" d="M4712,872h-142.5v51.2c46.3,27.8,106.3,12.8,134.2-33.4C4707,884.1,4709.9,878.2,4712,872L4712,872z"/>
		<path class="st10" d="M4569.5,872H4712c18-50.9-8.7-106.7-59.6-124.7c-27.5-9.7-57.9-6.6-82.9,8.4V872z"/>
		<path class="st10" d="M4529.5,840.7v3.1h-2v1.9h-1.5v3h-3.4c0.2,2.3,0.5,4.7,0.9,6.9h2.5v-2h1.5v-2.9h2v-3.5h2.8v3.1h2v2.3h1.5
			v2.7h2v2.9h1.4v3h1.4v3h1.9v4.1h-2.5v3.7h-2.7v2.2h-4.5v-3.2h2.6v-2.9h-1.7v-3.6h-2v-3.1h-2.6v3.1h-2.1v3.6h-0.4
			c2.5,8.1,6,15.8,10.5,23h1.6v-2h1.7v-3.1h1.7v-3.2h1.4v-2.7h1.4v-2.4h2.6v2.4h1.4v2.7h1.4v3.1h1.7v3.1h1.7v2h2v3.1h2.5v-3.1h2v-2
			h1.7V886h1.7v-3.1h1.2v-2.7h1.3v-3.6h3.4V871h-3v-2.9h-1.3v-3.6h-2.1v-3.1h-2.6v3.1h-2v3.6h-1.7v2.9h2.6v3.2h-4.5V872h-2.7v-3.7
			h-2.5v-4.1h1.9v-3h1.4v-3h1.4v-2.9h2v-2.7h1.5v-2.3h2v-3.1h2.8v3.5h2v2.9h1.5v2h3.4v-7h-3.4v-3h-1.5v-1.9h-2v-3.1h-1.5v-2.5h1.5
			v-3.1h2v-1.8h1.5v-3h3.4v-7h-3.4v2h-1.5v2.9h-2v3.5h-2.8v-3.1h-2v-2.3h-1.5v-2.7h-2v-2.9h-1.4v-2.9h-1.4v-3h-1.9v-4.1h2.5v-3.7
			h2.7v-2.2h4.5v3.2h-2.6v2.9h1.7v3.5h2v3.1h2.6v-3.1h2.1v-3.6h1.3v-2.9h3v-5.5h-3.4v-3.6h-1.3V796h-1.2v-3.1h-1.7v-3.1h-1.7v-2h-2
			v-3.1h-2.5v3.1h-2v2h-1.7v3.1h-1.7v3.1h-1.4v2.7h-1.4v2.3h-2.6v-2.3h-1.4V796h-1.4v-3.1h-1.7v-3.1h-1.7v-2h-1.6
			c-4.5,7.2-8,14.9-10.5,23h0.4v3.5h2.1v3.1h2.6v-3.1h2v-3.6h1.7v-2.9h-2.6v-3.2h4.5v2.2h2.7v3.7h2.5v4.1h-1.9v3h-1.4v3h-1.4v2.9h-2
			v2.8h-1.5v2.3h-2v3.1h-2.8v-3.5h-2v-2.9h-1.5v-2h-2.5c-0.4,2.3-0.7,4.6-0.9,6.9h3.4v3h1.5v1.9h2v3.1h1.5v2.5L4529.5,840.7z
			 M4534.4,833.9h3v-2.3h2.1v-2.3h1.2v-2.2h1.2v-3h1.9v-3h0.7v-2.9h3.2v2.9h0.7v3h1.9v3h1.2v2.2h1.2v2.3h2.1v2.3h3v11h-3v2.3h-2.1
			v2.3h-1.2v2.2h-1.2v3h-1.9v3h-0.7v2.9h-3.2v-2.9h-0.7v-3h-1.9v-3h-1.2v-2.2h-1.2v-2.3h-2.1v-2.3h-3V833.9z"/>
		<rect x="4545.1" y="787.5" class="st10" width="1.9" height="6"/>
		<path class="st10" d="M4549.8,771.6v3h-2.1v3h-3.3v-0.2c-0.8,1-1.6,2-2.4,3v1h-0.8c-0.8,1.1-1.5,2.1-2.3,3.2h0.9v3h2.4v-3h2.1
			v-3.1h3.3v3.1h2.1v3h2.4v-3h2.1v-3.1h1.7v-4h-1.7v-3h-2.1v-2.9H4549.8z M4551.9,781.4h-1.8v-3.8h1.8V781.4z"/>
		<path class="st10" d="M4569.5,920.4h-3.4v-2.8h-1.7v-3.4h-2.4v-3h-2v-3.2h-1.4v-2.7h-3.3v2.7h-1.4v3.2h-0.4
			c1.3,1.2,2.5,2.3,3.8,3.4h0.5v0.4c3.7,3,7.6,5.8,11.7,8.3V920.4z"/>
		<rect x="4552.7" y="837.4" class="st10" width="1.8" height="4.1"/>
		<path class="st10" d="M4526.1,818.2V814h-0.5c-0.4,1.4-0.7,2.8-1,4.2H4526.1z"/>
		<rect x="4537.6" y="837.4" class="st10" width="1.8" height="4.1"/>
		<rect x="4545.1" y="850.4" class="st10" width="1.9" height="3.8"/>
		<rect x="4545.1" y="824.7" class="st10" width="1.9" height="3.8"/>
		<polygon class="st10" points="4543.3,846.3 4545,846.3 4545,843 4547.1,843 4547.1,846.3 4548.9,846.3 4548.9,848.5 4550.5,848.5 
			4550.5,842.9 4548.9,842.9 4548.9,841 4547.7,841 4547.7,837.8 4548.9,837.8 4548.9,836 4550.5,836 4550.5,830.3 4548.9,830.3 
			4548.9,832.6 4547.1,832.6 4547.1,835.9 4545,835.9 4545,832.6 4543.3,832.6 4543.3,830.3 4541.6,830.3 4541.6,836 4543.3,836 
			4543.3,837.8 4544.4,837.8 4544.4,841 4543.3,841 4543.3,842.9 4541.6,842.9 4541.6,848.5 4543.3,848.5 		"/>
		<rect x="4566.1" y="788.7" class="st10" width="3.4" height="4.2"/>
		<rect x="4566.1" y="886" class="st10" width="3.4" height="4.2"/>
		<path class="st10" d="M4525.5,864.9h0.5v-4.2h-1.5C4524.8,862.1,4525.2,863.5,4525.5,864.9z"/>
		<path class="st10" d="M4554.3,901.3h1.7v-4h-1.7v-3h-2.1v-3h-2.4v3h-2.1v3.1h-3.3v-3.1h-2.1v-3h-2.4v3h-0.9
			c0.7,1.1,1.5,2.2,2.3,3.2h0.8v1c0.8,1,1.6,2,2.4,3v-0.2h3.3v3h2.1v3h2.4v-3h2.1L4554.3,901.3z M4551.9,901.2h-1.8v-3.8h1.8V901.2z
			"/>
		<path class="st10" d="M4561.6,771.6v3h-2.1v3h-1.7v4h1.7v3.1h2.1v3h2.4v-3h2.1v-3.1h3.4v-4h-3.4v-3h-2.1v-3H4561.6z M4563.6,781.4
			h-1.8v-3.8h1.8V781.4z"/>
		<path class="st10" d="M4557.8,764v0.4h-0.5c-1.3,1.1-2.6,2.2-3.8,3.4h0.4v3.2h1.4v2.7h3.3V771h1.4v-3.2h2v-3h2.4v-3.4h1.7v-2.8
			h3.4v-2.8C4565.4,758.2,4561.5,760.9,4557.8,764z"/>
		<rect x="4545.1" y="885.4" class="st10" width="1.9" height="6"/>
		<rect x="4566.1" y="764.6" class="st10" width="3.4" height="4.2"/>
		<rect x="4566.1" y="814" class="st10" width="3.4" height="4.2"/>
		<rect x="4566.1" y="860.7" class="st10" width="3.4" height="4.2"/>
		<rect x="4566.1" y="910.1" class="st10" width="3.4" height="4.2"/>
		<path class="st10" d="M4569.5,897.3h-3.4v-3.1h-2.1v-3h-2.4v3h-2.1v3.1h-1.7v4h1.7v3h2.1v3h2.4v-3h2.1v-3h3.4V897.3z
			 M4563.7,901.2h-1.8v-3.8h1.8V901.2z"/>
		<g class="st6">
			<circle class="st0" cx="4619.9" cy="839.4" r="97.7"/>
		</g>
		<path class="st0" d="M4619.9,746.7c51.2,0,92.7,41.5,92.7,92.7c0,51.2-41.5,92.7-92.7,92.7s-92.7-41.5-92.7-92.7v0
			C4527.3,788.3,4568.7,746.8,4619.9,746.7 M4619.9,741.7c-54,0-97.7,43.7-97.7,97.7s43.7,97.7,97.7,97.7s97.7-43.7,97.7-97.7
			c0,0,0,0,0,0C4717.6,785.5,4673.9,741.7,4619.9,741.7z"/>
	</g>
</g>
</svg>
